<mxfile host="app.diagrams.net" modified="2024-04-22T20:31:52.979Z" agent="Mozilla/5.0 (Windows NT 10.0; Win64; x64) AppleWebKit/537.36 (KHTML, like Gecko) Chrome/124.0.0.0 Safari/537.36" version="24.2.5" etag="5yEqO8jLLNaQRzHNT4pU" type="github">
  <diagram name="PÃ¡gina-1" id="2J26ts4s1bE-M6SoEJtU">
    <mxGraphModel>
      <root>
        <mxCell id="0" />
        <mxCell id="1" parent="0" />
      </root>
    </mxGraphModel>
  </diagram>
</mxfile>
